<?xml version="1.0" encoding="UTF-8"?>
<svg width="80" height="90" viewBox="0 0 64 90"><defs><linearGradient id="AbsintheGlassGrad" x1="0" y1="0" x2="0" y2="1"><stop offset="0%" stop-color="#A8E6CF" stop-opacity="1"></stop><stop offset="50%" stop-color="#DCEDC2" stop-opacity="1"></stop><stop offset="100%" stop-color="#FFD3B6" stop-opacity="1"></stop></linearGradient></defs><path d="M20 35 L44 35 L42 49 Q32 52 22 49 Z M26 50 Q32 50 38 50 L36 60 L28 60 Z" transform="scale(0.98)" class="liquid" fill="url(#AbsintheGlassGrad)" opacity="0.7"></path><path d="M20 35 L44 35 L42 49 Q32 52 22 49 Z M26 50 Q32 50 38 50 L36 60 L28 60 Z" stroke="currentColor" stroke-width="0.5" fill="none"></path><rect x="31" y="60" width="2" height="16" fill="black" stroke="currentColor" stroke-width="0.5"></rect><path d="M24 77 Q32 76 40 77 L40 77 L24 77 Z" fill="currentColor" stroke="currentColor" stroke-width="0.5" rx="0.5"></path></svg>