<svg xmlns="http://www.w3.org/2000/svg" width="300" height="300" viewBox="0 0 64 64"><defs><linearGradient id="HurricaneGlassGrad" x1="0" y1="0" x2="0" y2="1"><stop offset="0%" stop-color="#fff7c0" stop-opacity="1"></stop><stop offset="100%" stop-color="#93d3d8" stop-opacity="1"></stop></linearGradient></defs><path d="M24 10 C16 22, 24 38, 28 44 C30 48, 34 48, 36 44 C40 38, 48 22, 40 10 Z" transform="scale(0.98)" class="liquid" fill="url(#HurricaneGlassGrad)" opacity="0.7"></path><path d="M24 10 C16 22, 24 38, 28 44 C30 48, 34 48, 36 44 C40 38, 48 22, 40 10 Z" stroke="currentColor" fill="none" stroke-width="0.5"></path><rect x="30.5" y="47" width="3" height="10" fill="currentColor" stroke="currentColor" stroke-width="0.5"></rect><path d="M26 57 Q32 56 38 57 L38 57 L26 57 Z" fill="currentColor" stroke="currentColor" stroke-width="0.5"></path></svg>