<svg xmlns="http://www.w3.org/2000/svg" width="300" height="300" viewBox="0 0 64 64"><path d="M14 18 L50 18 Q46 28 36 29 Q30 30 28 29 Q18 28 14 18 Z" transform="scale(0.98)" class="liquid" opacity="0.7"></path><path d="M14 18 L50 18 Q46 28 36 29 Q30 30 28 29 Q18 28 14 18 Z" fill="none" stroke="currentColor" stroke-width="0.5"></path><path d="M28 29 Q32 29 36 29 Q38 34 32 36 Q26 34 28 29 Z" transform="scale(0.98)" class="liquid" opacity="0.7"></path><path d="M28 29 Q32 29 36 29 Q38 34 32 36 Q26 34 28 29 Z" fill="none" stroke="currentColor" stroke-width="0.5"></path><rect x="31.5" y="36" width="1" height="10" fill="currentColor" stroke="currentColor" stroke-width="0.5"></rect><path d=" M24 46 Q32 45 40 46 L40 47 L24 47 Z " fill="currentColor" stroke-width="0"></path></svg>